<svg width="56" height="56" viewBox="0 0 56 56" fill="none" xmlns="http://www.w3.org/2000/svg">
<path d="M56 28C56 43.464 43.464 56 28 56C12.536 56 0 43.464 0 28C0 12.536 12.536 0 28 0C43.464 0 56 12.536 56 28ZM5.6 28C5.6 40.3712 15.6288 50.4 28 50.4C40.3712 50.4 50.4 40.3712 50.4 28C50.4 15.6288 40.3712 5.6 28 5.6C15.6288 5.6 5.6 15.6288 5.6 28Z" fill="#D6E7FF"/>
<path d="M53.2 28C54.7464 28 56.0145 26.7433 55.8601 25.2046C55.5874 22.4866 54.9179 19.8179 53.8686 17.2849C52.4615 13.8877 50.399 10.8011 47.799 8.20101C45.1989 5.60097 42.1123 3.5385 38.7151 2.13137C36.1821 1.08215 33.5134 0.412604 30.7954 0.139884C29.2567 -0.0145002 28 1.2536 28 2.8C28 4.3464 29.2584 5.58197 30.7927 5.77477C32.7748 6.02383 34.7188 6.53744 36.5721 7.3051C39.2898 8.4308 41.7592 10.0808 43.8392 12.1608C45.9192 14.2408 47.5692 16.7102 48.6949 19.4279C49.4626 21.2812 49.9762 23.2252 50.2252 25.2073C50.418 26.7416 51.6536 28 53.2 28Z" fill="#0455C0"/>
</svg>
